<svg width="492" height="215" viewBox="0 0 492 215" fill="none" xmlns="http://www.w3.org/2000/svg">
    <g clip-path="url(#clip0_30_19)">
        <path fill-rule="evenodd" clip-rule="evenodd"
            d="M418.016 0.0585353H492L369.92 123.275H295.936L418.016 0.0585353ZM69.4843 123.275H0L86.6654 35.5894C111.035 9.48271 142.416 0 181.688 0H403.231L357.239 46.4185H178.883C149.02 46.3599 137.215 55.0817 120.619 71.8228L69.4843 123.275Z"
            fill="#FF0000" />
        <path fill-rule="evenodd" clip-rule="evenodd"
            d="M391.075 214.941L359.051 215C350.343 215 345.376 208.034 345.201 201.654L345.142 200.074C344.967 193.986 349.116 189.303 352.272 187.313L384.063 166.708H347.48V157.284H380.556C392.01 157.284 397.854 162.845 397.854 173.264V215H391.075V214.941ZM80.3539 156.231H96.4832C108.054 156.231 117.521 165.713 117.521 177.303V193.81C117.521 205.4 108.054 214.883 96.4832 214.883H80.3539C68.783 214.883 59.3158 205.4 59.3158 193.81V177.303C59.3158 165.655 68.783 156.231 80.3539 156.231ZM82.4577 164.894H94.3793C101.334 164.894 107.002 170.279 107.002 177.186V194.103C107.002 201.069 101.334 206.395 94.3793 206.395H82.4577C75.5035 206.395 69.8349 201.01 69.8349 194.103V177.186C69.8349 170.279 75.5035 164.894 82.4577 164.894ZM214.589 167.938C215.582 161.616 219.089 157.518 224.465 157.518H239.426C245.854 157.518 252.925 164.308 252.925 172.503V214.941H242.348V172.562C242.348 169.752 239.016 166.591 236.562 166.591H222.069C218.329 166.591 214.706 169.518 214.706 173.967V214.941H204.128V172.679C204.128 169.518 200.739 166.65 198.46 166.65H185.135C181.629 166.65 176.896 169.752 176.896 175.138V215H166.318V157.284H176.896V166.825C179.525 160.913 184.025 157.46 189.109 157.46H201.265C207.576 157.46 213.654 163.665 214.589 167.938ZM455.943 153.421V204.99H474.644V215H424.269V204.99H444.606V154.416C444.606 153.362 443.788 152.367 442.619 152.367H426.665V142.592H444.606C452.028 142.592 455.943 147.509 455.943 153.421ZM126.462 170.63C126.462 161.85 132.774 157.167 138.852 157.167H157.669V167.177H142.709C139.319 167.177 137.04 169.694 137.04 172.62V214.883H126.462V170.63ZM303.124 214.883H282.787C270.398 214.883 263.327 207.449 263.21 194.454V157.226H273.788V194.454C273.905 200.6 276.184 204.288 282.787 204.288H303.124V157.226H313.702V214.941L303.124 214.883ZM52.3031 173.381V183.215H10.7528V214.941H0.175293V142.533H2.68818H53.9978V153.128H10.7528V173.381H52.3031ZM325.857 142.533H337.136V214.883H325.857V142.533ZM387.16 174.435L357.999 193.342C356.713 194.161 355.194 196.796 355.252 198.61V199.605C355.311 201.654 357.94 205.459 361.505 205.459H387.16V174.435Z"
            fill="white" />
        <path fill-rule="evenodd" clip-rule="evenodd"
            d="M146.157 122.105H82.5746L123.424 81.0713C151.241 53.0915 157.669 54.2037 204.537 54.3793H349.233L307.741 95.9393L199.687 95.8222C186.655 95.8222 173.155 95.7052 160.416 108.173L146.157 122.105Z"
            fill="#FF0000" />
    </g>
    <defs>
        <clipPath id="clip0_30_19">
            <rect width="492" height="215" fill="white" />
        </clipPath>
    </defs>
</svg>